<svg xmlns="http://www.w3.org/2000/svg" viewBox="0 0 135.05 138.27"><defs><style>.cls-1{fill:#32abda;}.cls-2{fill:#005f8c;}.cls-3{fill:none;}</style></defs><g id="Layer_2" data-name="Layer 2"><g id="Layer_2-2" data-name="Layer 2"><path class="cls-1" d="M100.17,26.8A51.25,51.25,0,0,0,94,22.51a50.16,50.16,0,0,0-5.74-3c-1.23-.54-2.49-1-3.76-1.48-.79-.27-1.58-.53-2.39-.76s-1.92-.54-2.89-.77-1.82-.4-2.74-.55a51.72,51.72,0,0,0-5.33-.66c-1.21-.08-2.42-.13-3.65-.13-.84,0-1.67,0-2.5.07-1.65.07-3.29.23-4.9.46-.61.09-1.22.19-1.82.3-.93.16-1.84.36-2.75.57s-1.74.44-2.59.69c-1.2.36-2.39.75-3.56,1.18A55.31,55.31,0,0,0,43.73,21,53.58,53.58,0,0,0,14.89,69a55.22,55.22,0,0,0,2.8,17.36,53.79,53.79,0,0,0,19.9,26.87A52.73,52.73,0,0,0,43.73,117a55.24,55.24,0,0,0,5.67,2.52c1.17.44,2.36.83,3.56,1.18.85.26,1.72.48,2.59.69V80.18H43.73V71.9a10.68,10.68,0,0,0,0-20.52,10.33,10.33,0,0,0-3-.42,10.68,10.68,0,0,0-3.18,20.87v14.5H49.4v27.46a48.46,48.46,0,0,1-5.67-2.85,46.26,46.26,0,0,1-6.14-4.34A48.1,48.1,0,0,1,23.25,86.33a47.39,47.39,0,0,1-1.84-6.15,49.13,49.13,0,0,1-1.22-10.92,48.4,48.4,0,0,1,17.4-37.35,46.26,46.26,0,0,1,6.14-4.34,47,47,0,0,1,5.67-2.85c1.16-.49,2.35-.93,3.56-1.32.85-.29,1.72-.53,2.59-.76s1.82-.45,2.75-.64c.6-.11,1.21-.23,1.82-.32a46.73,46.73,0,0,1,4.9-.5c.76,0,1.53-.06,2.28-.06,1.3,0,2.6.06,3.87.16A46.52,46.52,0,0,1,76.5,22c.92.18,1.84.4,2.74.64s1.94.55,2.89.88,1.61.56,2.39.88c1.28.51,2.53,1.08,3.76,1.7a47.38,47.38,0,0,1,11.89,8.62,48.49,48.49,0,0,1,14.26,34.5,49.72,49.72,0,0,1-1.22,10.92,49,49,0,0,1-1.84,6.15,48.16,48.16,0,0,1-11.2,17.41A47.35,47.35,0,0,1,94,108.9a45.84,45.84,0,0,1-5.74,3.47v-26h11.89V72a10.68,10.68,0,0,0,0-20.67A10.31,10.31,0,0,0,97.49,51a10.6,10.6,0,0,0-9.21,5.28,10.64,10.64,0,0,0,0,10.79A10.65,10.65,0,0,0,94,71.74v8.44H82.13v40.46c.81-.23,1.6-.49,2.39-.76,1.27-.45,2.53-.94,3.76-1.48a51.81,51.81,0,0,0,5.74-3,52.42,52.42,0,0,0,6.15-4.29,53.82,53.82,0,0,0,17.18-24.82A50.63,50.63,0,0,0,119,80.18,55.07,55.07,0,0,0,120.16,69,54.07,54.07,0,0,0,100.17,26.8ZM37.59,66a5.44,5.44,0,0,1,3.18-9.84,5.34,5.34,0,0,1,3,.88,5.42,5.42,0,0,1,0,9.11,5.34,5.34,0,0,1-3,.88A5.42,5.42,0,0,1,37.59,66Zm54.46-4.4a5.44,5.44,0,0,1,5.44-5.44,5.29,5.29,0,0,1,2.68.72,5.43,5.43,0,0,1-2.68,10.15,5.42,5.42,0,0,1-5.44-5.43Z"/><path class="cls-2" d="M46.77,3.32v.32C44.82,4.29,42.9,5,41,5.83c-2.11.92-4.16,2-6.16,3.07a69,69,0,0,0-32.71,43C1.65,54,1.22,56,.89,58.08a70.76,70.76,0,0,0-.84,8.54A69.06,69.06,0,0,1,37.59,7.13,66.22,66.22,0,0,1,43.73,4.4C44.73,4,45.75,3.65,46.77,3.32Z"/><path class="cls-2" d="M134.88,64.37q-.23-3.18-.72-6.29t-1.27-6.14A68.8,68.8,0,0,0,97.46,7.45a63.59,63.59,0,0,0-6.14-2.72q-2.79-1.08-5.68-1.9V2.51c.89.25,1.77.51,2.64.8,2,.65,3.87,1.38,5.74,2.2a65.26,65.26,0,0,1,6.15,3.07A69,69,0,0,1,134.88,64.37Z"/><path class="cls-2" d="M135,67.87c0-.45,0-.9,0-1.35,0-.72-.07-1.43-.11-2.15q-.23-3.18-.72-6.29t-1.27-6.14A68.8,68.8,0,0,0,97.46,7.45a63.59,63.59,0,0,0-6.14-2.72q-2.79-1.08-5.68-1.9V2.51q-1.73-.49-3.51-.9c-.87-.19-1.75-.37-2.63-.53s-2-.34-3-.48C74.75.36,73,.19,71.17.1,70,0,68.74,0,67.52,0c-.84,0-1.67,0-2.5.05-1.65.05-3.28.18-4.9.35s-3.06.4-4.57.68c-.88.16-1.76.34-2.63.53-1.18.27-2.36.57-3.52.9-.88.25-1.76.52-2.63.81v.32C44.82,4.29,42.9,5,41,5.83c-2.11.92-4.16,2-6.16,3.07a69,69,0,0,0-32.71,43C1.65,54,1.22,56,.89,58.08a70.76,70.76,0,0,0-.84,8.54c0,.41,0,.83,0,1.25s0,.95,0,1.43S0,70,0,70.4s0,1,0,1.49c0,.33,0,.66,0,1a69.93,69.93,0,0,0,.79,7.3c.33,2.08.76,4.13,1.27,6.15a68.77,68.77,0,0,0,35.43,44.49,63.59,63.59,0,0,0,6.14,2.72q2.79,1.08,5.67,1.9v.32c1.17.33,2.34.63,3.52.9.87.19,1.75.37,2.63.53s2,.34,3,.48c1.76.24,3.54.4,5.33.5l1.22.06c.81,0,1.62,0,2.43,0s1.67,0,2.5-.05c.48,0,1,0,1.44-.07,1.17-.06,2.32-.16,3.46-.29,1.54-.16,3.06-.39,4.57-.67.89-.16,1.77-.34,2.63-.53q1.78-.41,3.51-.9c.89-.25,1.77-.52,2.64-.8s2-.7,3-1.09a66.22,66.22,0,0,0,6.14-2.73A69.07,69.07,0,0,0,135,71.65c0-.42,0-.83,0-1.25s0-.74,0-1.1S135.05,68.34,135,67.87ZM71.18,73.31a5.39,5.39,0,0,1-2.27.5h-.1a1.34,1.34,0,0,1-.2,0h-.34a1.52,1.52,0,0,1-.21,0l-.19,0-.15,0-.36-.08-.17-.06L67,73.47a1.73,1.73,0,0,1-.24-.1,1.3,1.3,0,0,1-.25-.1c-.16-.08-.31-.17-.46-.26a.41.41,0,0,1-.11-.07l-.12-.08h0l-.21-.15,0,0-.25-.21,0,0L65,72.19a4.59,4.59,0,0,1-.64-.8h0c-.07-.11-.14-.22-.2-.33a5.32,5.32,0,0,1-.71-2.69,5.39,5.39,0,0,1,3.94-5.22l.4-.1a5.6,5.6,0,0,1,1.09-.11,4.7,4.7,0,0,1,.54,0h.08l.29,0,.27.06h0l.21,0,.08,0a4.24,4.24,0,0,1,.5.18l.3.12a2.55,2.55,0,0,1,.33.17l.33.2a2.82,2.82,0,0,1,.31.21l.07.06a.1.1,0,0,1,0,0,.53.53,0,0,1,.14.12l.09.07.16.14.06.06,0,0a2,2,0,0,1,.24.26s0,0,0,0l.06.06a1.56,1.56,0,0,1,.16.2.24.24,0,0,0,.06.08s0,0,0,0a.62.62,0,0,1,.11.17.66.66,0,0,1,.12.17.2.2,0,0,1,0,.09h0a1.94,1.94,0,0,1,.15.24s0,.1.08.16.07.15.1.23a.19.19,0,0,1,0,.08c0,.11.09.22.13.33l.06.21a1.17,1.17,0,0,1,.05.2,1.6,1.6,0,0,1,0,.21,4.86,4.86,0,0,1,.11,1.09A5.43,5.43,0,0,1,71.18,73.31ZM85.64,128a59.38,59.38,0,0,1-6.14,1.58c-1.5.3-3,.54-4.57.72-1.14.14-2.29.25-3.46.32V78.71a10.65,10.65,0,1,0-6.37-.39v52.31l-1.22-.08c-1.79-.11-3.57-.31-5.33-.59s-3.79-.69-5.63-1.16a58.66,58.66,0,0,1-6.15-2A56.46,56.46,0,0,1,41,124.31a61,61,0,0,1-6.16-3.58A62.69,62.69,0,0,1,8.29,58.08a60,60,0,0,1,1.39-6.14,61.82,61.82,0,0,1,22.9-33.2l.07,0Q35,17,37.59,15.52a59,59,0,0,1,18-6.78c1.5-.3,3-.54,4.57-.72s3.25-.33,4.9-.39c.74,0,1.49,0,2.23,0,1.32,0,2.62,0,3.92.14,1.8.11,3.58.31,5.33.59,1.9.29,3.79.69,5.63,1.16a57.92,57.92,0,0,1,6.15,2A56.46,56.46,0,0,1,94,14a58.68,58.68,0,0,1,6.15,3.58A62,62,0,0,1,127.7,69.33a63.46,63.46,0,0,1-.93,10.85q-.55,3.13-1.39,6.15a61.86,61.86,0,0,1-22.76,33.09l-.15.1a60.34,60.34,0,0,1-11.15,6.32A58.47,58.47,0,0,1,85.64,128Z"/><path class="cls-2" d="M49.4,135.44v.32c-.88-.25-1.76-.51-2.63-.8-2-.65-3.87-1.38-5.74-2.2a66.66,66.66,0,0,1-6.16-3.07A69.1,69.1,0,0,1,.1,72.88a69.93,69.93,0,0,0,.79,7.3c.33,2.08.76,4.13,1.27,6.15a68.77,68.77,0,0,0,35.43,44.49,63.59,63.59,0,0,0,6.14,2.72Q46.52,134.62,49.4,135.44Z"/><path class="cls-3" d="M102.92,61.64a5.44,5.44,0,1,1-2.75-4.73A5.43,5.43,0,0,1,102.92,61.64Z"/></g></g></svg>